<?xml version="1.0" encoding="utf-8"?>
<!-- Generator: Adobe Illustrator 28.0.0, SVG Export Plug-In . SVG Version: 6.00 Build 0)  -->
<svg version="1.1" id="Layer_1" xmlns="http://www.w3.org/2000/svg" xmlns:xlink="http://www.w3.org/1999/xlink" x="0px" y="0px"
	 viewBox="0 0 801 559" style="enable-background:new 0 0 801 559;" xml:space="preserve">
<g transform="translate(0.000000,559.000000) scale(0.100000,-0.100000)">
	<path d="M3928,5512c-572-598-935-1574-974-2617c-6-153,6-471,22-583l6-42h1019h1019l4,23c12,52,26,316,26,478
		c0,984-332,1987-866,2618c-40,47-97,112-126,145l-53,58L3928,5512z"/>
	<path d="M6,3990c-11-66-6-300,9-446c41-384,154-777,344-1187l40-87h1201h1202l-48,68c-245,347-576,687-931,954
		c-545,412-1167,673-1730,726l-81,8L6,3990z"/>
	<path d="M7945,4022c-263-18-632-114-930-242c-564-241-1121-657-1535-1145c-79-94-270-346-270-357c0-4,538-8,1195-8h1195l34,68
		c145,288,286,732,337,1059c23,148,40,608,23,621C7989,4022,7967,4024,7945,4022z"/>
	<path d="M570,1959c0-17,101-165,165-242l57-67l3211,2l3211,3l59,70c70,84,157,211,157,231c0,12-478,14-3430,14
		C1442,1970,570,1967,570,1959z"/>
	<path d="M1039,1332c15-28,179-183,255-240l69-52h2637h2638l63,46c66,48,269,241,269,256c0,4-1337,8-2970,8
		C1158,1350,1030,1349,1039,1332z"/>
	<path d="M1805,671c317-206,708-386,1092-502c169-51,418-105,508-111l50-3l3,110c3,108-18,350-41,490l-12,70l-845,2l-845,3L1805,671
		z"/>
	<path d="M3501,708c110-206,386-600,478-682c21-19,22-19,52,10c57,54,187,221,282,366c84,126,197,312,197,324c0,2-230,4-510,4h-511
		L3501,708z"/>
	<path d="M4596,703c-31-145-65-548-52-615c6-36,8-36,44-32c386,51,798,183,1210,389c159,79,446,245,476,276c6,5-307,9-831,9h-841
		L4596,703z"/>
</g>
</svg>
