<svg id="Layer_1" data-name="Layer 1" xmlns="http://www.w3.org/2000/svg" width="338.1" height="185.4" viewBox="0 0 338.1 185.4"><title>New-Balance-black-logo</title><path d="M0,184.2H7.6v-15c0-2.7,0-6,1.4-7.9a6.54,6.54,0,0,1,5.2-2.8c6.4,0,6.4,7.5,6.4,10.1v15.6h7.6V167.1c0-2.5,0-7.7-2.9-11.2a12.86,12.86,0,0,0-9.5-4.4,12,12,0,0,0-8.7,3.8v-2.7H0v31.6"/><path d="M37.8,165.7a9.12,9.12,0,0,1,8.9-7.4,8.34,8.34,0,0,1,8.5,7.4H37.8m24.7,6.1A18.48,18.48,0,0,0,63,168c0-8-6.3-16.6-16.4-16.6-9.7,0-16.6,8.2-16.6,17.2a16.47,16.47,0,0,0,32,5.8H54c-1.4,2.6-3.9,4-7.3,4-5.4,0-8.4-4.4-8.7-6.5l24.5-.1Z"/><polyline points="72.7 184.2 77.4 184.2 83.4 163.7 83.5 163.7 89.4 184.2 94.1 184.2 105.7 152.6 97.6 152.6 91.7 171.9 91.6 171.9 86.5 152.6 80.5 152.6 75.3 171.9 75.2 171.9 69.4 152.6 61.3 152.6 72.7 184.2"/><path d="M127.4,168a9.46,9.46,0,0,1,9.4-9.5c4.8,0,9.2,3.7,9.2,9.9s-4.2,10-9.1,10c-4.4-.1-9.5-3.4-9.5-10.4m-7.1,16.2h7v-3.8a12.89,12.89,0,0,0,10.7,4.8c11.6,0,15.7-10.7,15.7-17,0-8.4-6.3-16.8-15.9-16.8a14.42,14.42,0,0,0-9.9,3.9V141.9h-7.6Z"/><path d="M181.8,168.3c0,5.9-4,10-9.2,10a9.46,9.46,0,0,1-9.4-9.7c0-4.7,3.2-10.1,9.4-10.1,4.5,0,9.2,3.3,9.2,9.8m7.2-15.7h-7v4h0a13.21,13.21,0,0,0-10.5-5.1c-8.8,0-15.8,7-15.8,16.7,0,10.5,7.2,17,15.4,17a15.58,15.58,0,0,0,11.1-5v3.9h7V152.6Z"/><rect x="193.1" y="142.1" width="7.6" height="42.2"/><path d="M229.1,168.3c0,5.9-4,10-9.2,10a9.46,9.46,0,0,1-9.4-9.7c0-4.7,3.2-10.1,9.4-10.1,4.5,0,9.2,3.3,9.2,9.8m7.2-15.7h-7v4h-.1a13.21,13.21,0,0,0-10.5-5.1c-8.8,0-15.8,7-15.8,16.7,0,10.5,7.2,17,15.4,17a15.58,15.58,0,0,0,11.1-5v3.9h7l-.1-31.5Z"/><path d="M240.3,184.2h7.6v-15c0-2.7,0-6,1.4-7.9a6.54,6.54,0,0,1,5.2-2.8c6.4,0,6.4,7.5,6.4,10.1v15.6h7.6V167.1c0-2.5,0-7.7-2.9-11.2a12.86,12.86,0,0,0-9.5-4.4,12,12,0,0,0-8.7,3.8v-2.7h-7v31.6"/><path d="M295.3,173.9c-2,3.2-4.5,4.4-7,4.4-5.7,0-9.5-4.5-9.5-9.9,0-6.5,4.6-9.9,9.2-9.9s6.4,3,7.4,4.6h8.5A16.63,16.63,0,0,0,288,151.5a16.9,16.9,0,0,0,0,33.8A16.32,16.32,0,0,0,303.8,174h-8.5"/><path d="M312.8,165.7a9.12,9.12,0,0,1,8.9-7.4,8.34,8.34,0,0,1,8.5,7.4H312.8m24.8,6.1a18.48,18.48,0,0,0,.5-3.8c0-8-6.3-16.6-16.4-16.6-9.7,0-16.6,8.2-16.6,17.2a16.47,16.47,0,0,0,32,5.8h-8c-1.4,2.6-3.9,4-7.3,4-5.4,0-8.4-4.4-8.7-6.5l24.5-.1Z"/><path d="M175,43l11.8-20.4L226.6,20l1.4-2.5L191.1,15l8.6-15H268c21,0,36.5,7.5,30.5,29.6-1.8,6.7-10.4,23.5-35.4,30.6,5.3.6,18.5,6.5,16.3,21.7-4,27-38.9,39.8-58.4,39.8H140.4l-4-15.6,42.2-3,1.4-2.5-45.8-2.8-4.9-18.5,65.2-3.8,1.4-2.4-117-7.4L84.5,56l126-8.2,1.4-2.5L175,43m52.7,4,11.6-.1c7.7,0,15.8-3.6,18.8-10.8,2.7-6.7-.9-12.4-5.8-12.3H241ZM214.4,70.3l-14,24.3h13.4c6.2,0,17.3-3.1,20.7-11.9,3.2-8.2-2.7-12.4-6.7-12.4ZM112.7,107.8l-8.1,13.9-57.9.1,5.6-9.7ZM116.8,0h46.6l3.5,13.2L111.2,9.7Zm52.7,23.7L174.6,43,95,37.7l5.6-9.7ZM129,79.4,118.9,96.9,62.8,93.7,68.4,84Z"/><path d="M267.5,117.3a3.5,3.5,0,1,1-7,0,3.5,3.5,0,0,1,3.5-3.6,3.56,3.56,0,0,1,3.5,3.6m-7.8,0A4.3,4.3,0,1,0,264,113,4.4,4.4,0,0,0,259.7,117.3Zm3.4-1.8h1c.9,0,1.1.3,1.1.7s-.3.8-1.2.8h-.9Zm0,2.2h.9l1.3,2.1h.8l-1.4-2.2a1.35,1.35,0,0,0,1.3-1.4c0-1-.6-1.4-1.8-1.4h-1.9v4.9h.8v-2Z"/></svg>