<svg xmlns="http://www.w3.org/2000/svg" xmlns:xlink="http://www.w3.org/1999/xlink" version="1.1" x="0px" y="0px" viewBox="0 0 100 125" enable-background="new 0 0 100 100" xml:space="preserve"><g><path fill="#000000" d="M37.597,65.616l0.148,0.005c0.875,0,1.538-0.469,1.578-1.116c0.041-0.688-0.638-1.252-1.581-1.312   l-0.144-0.005c-0.875,0-1.539,0.467-1.583,1.119C35.978,64.997,36.658,65.559,37.597,65.616z M37.745,64.432v0.572l-0.069-0.58   C37.7,64.427,37.724,64.429,37.745,64.432z"/><path fill="#000000" d="M45.464,65.616l0.148,0.005c0.875,0,1.539-0.469,1.578-1.116c0.041-0.688-0.637-1.252-1.581-1.312   l-0.143-0.005c-0.875,0-1.54,0.467-1.583,1.119C43.845,64.997,44.524,65.559,45.464,65.616z M45.612,64.432v0.572l-0.069-0.58   C45.567,64.427,45.59,64.429,45.612,64.432z"/><path fill="#000000" d="M86.209,61.507c-0.033-0.027-0.065-0.048-0.104-0.068c-0.017-0.008-0.03-0.024-0.046-0.031   c-0.023-0.008-0.047-0.007-0.071-0.013c-0.021-0.006-0.038-0.019-0.06-0.023l-13.047-2.155c-0.001,0-0.001,0-0.001,0   c-14.66-2.604-28.01-14.496-38.608-34.389c-0.111-0.208-0.325-0.318-0.544-0.319v-0.007c-0.011,0-0.021,0.005-0.031,0.005   c-0.021,0.001-0.042,0.005-0.063,0.009c-1.939,0.134-2.867,4.301-2.939,8.364c-0.378,0.112-0.771,0.239-1.192,0.39   c-0.015,0.004-0.023,0.015-0.037,0.021c-0.014,0.006-0.03,0.006-0.044,0.013c-5.195,2.75-12.146,1.936-13.15,1.351   c-0.003-0.008-0.014-0.012-0.017-0.02c-0.047-0.085-0.11-0.157-0.19-0.211c-0.021-0.016-0.048-0.021-0.072-0.035   c-0.07-0.037-0.145-0.057-0.224-0.065c-0.019-0.001-0.031-0.015-0.051-0.015c-0.016,0-0.029,0.007-0.043,0.008   c-0.016,0.001-0.029-0.005-0.044-0.002c-0.028,0.004-0.049,0.02-0.076,0.027c-0.04,0.012-0.078,0.023-0.114,0.041   c-0.036,0.018-0.067,0.041-0.098,0.066c-0.03,0.024-0.059,0.048-0.084,0.077c-0.027,0.03-0.046,0.063-0.066,0.097   c-0.019,0.034-0.037,0.066-0.051,0.105c-0.013,0.039-0.019,0.08-0.024,0.122c-0.003,0.025-0.016,0.049-0.016,0.076   c0,0.019,0.006,0.043,0.007,0.064c0.001,0.008-0.002,0.016-0.001,0.024c1.315,9.171-0.285,15.922-1.216,17.594   c-0.004,0.007-0.004,0.014-0.007,0.021c-0.004,0.008-0.012,0.013-0.016,0.022c-2.267,4.963-2.264,6.761-1.661,13.788   c-0.34,0.212-0.681,0.635-0.922,1.446c-0.222,0.744-0.345,1.752-0.345,2.839c0,0.798,0.093,4.774,1.922,4.774h44.237   c1.72,0,4.455-0.035,7.613-0.2c0.07,0.028,0.146,0.043,0.224,0.043c0.026,0,0.053-0.001,0.079-0.005   c0.07-0.01,0.133-0.036,0.193-0.065c9.143-0.508,21.52-2.117,23.555-7.051c0.814-1.972-0.026-4.219-2.499-6.677   C86.247,61.528,86.226,61.52,86.209,61.507z M84.326,62.357c-1.434,0.903-3.861,1.904-7.182,2.662   c-0.636-0.021-1.518-1.604-1.667-4.123L84.326,62.357z M29.939,34.421c5.286-1.875,6.258-0.517,8.79,4.481   c0.11,0.214,0.327,0.339,0.551,0.339c0.094,0,0.189-0.022,0.278-0.066c0.304-0.154,0.426-0.525,0.272-0.829   c-2.362-4.663-3.822-6.605-7.884-5.778c0.112-3.817,0.946-6.075,1.511-6.662c3.299,6.125,6.807,11.466,10.518,16.002   c-2.138,0.175-4.169,0.777-5.193,1.765c-0.323-0.121-0.654-0.123-0.932,0.043c-0.59,0.36-0.667,1.239-0.18,2.046   c0.348,0.574,0.877,0.929,1.379,0.929c0.184,0,0.362-0.048,0.518-0.141c0.589-0.359,0.667-1.237,0.18-2.045   c-0.006-0.01-0.013-0.015-0.019-0.024c0.779-0.672,2.668-1.333,5.264-1.381c1.089,1.277,2.193,2.491,3.316,3.632   c-2.423,0.17-4.658,0.759-5.707,1.742c-0.6-0.14-1.181,0.015-1.44,0.447c-0.35,0.596-0.001,1.407,0.809,1.883   c0.338,0.202,0.711,0.311,1.049,0.311c0.438,0,0.801-0.186,0.995-0.511c0.259-0.439,0.132-0.998-0.28-1.455   c0.875-0.573,2.844-1.188,5.78-1.226c0.877,0.844,1.766,1.646,2.662,2.409c-2.116,0.345-3.763,1.367-4.426,2.715   c-0.488-0.035-0.934,0.108-1.15,0.47c-0.349,0.596-0.001,1.408,0.811,1.885c0.337,0.199,0.709,0.31,1.048,0.31   c0.438,0,0.8-0.186,0.996-0.512c0.307-0.522,0.052-1.2-0.559-1.685c0.626-1.146,2.457-2.009,4.605-2.073   c1.04,0.829,2.092,1.604,3.156,2.327c-1.506,0.407-2.687,1.313-3.211,2.462c-0.498-0.023-0.944,0.138-1.152,0.516   c-0.325,0.609,0.056,1.406,0.884,1.852c0.322,0.173,0.677,0.27,0.997,0.27c0.468,0,0.846-0.2,1.037-0.552   c0.287-0.532,0.009-1.197-0.617-1.659c0.516-1.059,1.926-1.83,3.62-1.886c1.121,0.698,2.25,1.359,3.397,1.939   c-0.603,0.394-1.079,0.984-1.344,1.697c-0.467-0.004-0.883,0.158-1.081,0.517c-0.325,0.609,0.055,1.406,0.885,1.852   c0.322,0.173,0.677,0.27,0.996,0.27c0.468,0,0.847-0.2,1.039-0.552c0.294-0.548-0.005-1.236-0.67-1.697   c0.299-0.77,0.966-1.311,1.748-1.357c1.449,0.66,2.916,1.238,4.406,1.715c-0.284,0.148-0.553,0.319-0.785,0.522   c-0.67-0.194-1.33-0.048-1.598,0.443c-0.324,0.609,0.057,1.404,0.884,1.85c0.323,0.173,0.677,0.27,0.996,0.27   c0.468,0,0.847-0.2,1.039-0.552c0.217-0.405,0.098-0.885-0.232-1.298c0.601-0.383,1.451-0.611,1.927-0.573   c0.883,0.226,1.774,0.416,2.67,0.578c-0.09,1.047-0.443,1.917-1.067,2.519c-0.56,0.539-1.304,0.833-2.168,0.863   C46.611,62.105,36.661,48.876,29.4,34.678C29.581,34.593,29.764,34.514,29.939,34.421z M14.989,53.164   c0.001-0.001,0-0.003,0.001-0.006c0.995-1.838,2.551-8.25,1.487-17.133c0.955,0.262,2.408,0.444,4.104,0.444   c2.351,0,5.148-0.357,7.68-1.311c7.033,13.767,17.397,27.89,40.354,29.797c0.076,0.039,0.159,0.063,0.25,0.066   c0.072,0.002,0.144,0.003,0.217,0.003c0.054,0,0.104-0.012,0.158-0.013c0.034,0.002,0.065,0.006,0.099,0.009l0.001-0.017   c1.151-0.056,2.165-0.457,2.94-1.203c0.823-0.792,1.294-1.895,1.427-3.197l0.517,0.085c0.075,1.812,0.533,3.614,1.337,4.658   c-2.777,0.52-6.067,0.866-9.851,0.866c-0.059,0-0.114,0.018-0.167,0.033H13.428C12.824,59.154,12.919,57.695,14.989,53.164z    M57.097,74.264H12.896c-0.358-0.215-0.875-2.206-0.685-4.539c0.139-1.709,0.558-2.213,0.649-2.245H63.39l0.844,6.618   C61.858,74.21,59.454,74.264,57.097,74.264z M87.622,67.75c-1.576,3.816-11.423,5.68-22.153,6.284l-0.835-6.554h1.312   c0.072,0,0.14-0.018,0.203-0.041c4.322-0.032,8.036-0.51,11.079-1.197c0.064-0.007,0.126-0.017,0.183-0.042   c4.116-0.949,6.975-2.273,8.375-3.367C87.558,64.729,88.186,66.383,87.622,67.75z"/><path fill="#000000" d="M24.656,58.601c3.74,0,6.784-3.367,6.784-7.504c0-4.139-3.044-7.507-6.784-7.507   c-3.74,0-6.784,3.368-6.784,7.507C17.873,55.234,20.917,58.601,24.656,58.601z M24.656,44.823c3.061,0,5.551,2.814,5.551,6.273   c0,3.458-2.49,6.271-5.551,6.271c-3.061,0-5.55-2.813-5.55-6.271C19.106,47.637,21.596,44.823,24.656,44.823z"/><path fill="#000000" d="M22.602,52.133l-0.287,1.917c-0.036,0.236,0.069,0.472,0.267,0.604c0.199,0.131,0.455,0.137,0.661,0.016   l1.414-0.851l1.415,0.851c0.099,0.059,0.208,0.088,0.318,0.088c0.119,0,0.239-0.035,0.343-0.104   c0.198-0.133,0.302-0.369,0.266-0.604l-0.288-1.917l1.208-1.346c0.15-0.167,0.198-0.403,0.123-0.617   c-0.074-0.212-0.259-0.367-0.48-0.403l-1.604-0.267l-0.733-1.697c-0.195-0.453-0.937-0.451-1.132,0l-0.732,1.697l-1.605,0.267   c-0.222,0.036-0.406,0.191-0.481,0.403c-0.075,0.213-0.027,0.449,0.123,0.617L22.602,52.133z"/></g><text x="0" y="115" fill="#000000" font-size="5px" font-weight="bold" font-family="'Helvetica Neue', Helvetica, Arial-Unicode, Arial, Sans-serif">Created by emiliano perez alonzo</text><text x="0" y="120" fill="#000000" font-size="5px" font-weight="bold" font-family="'Helvetica Neue', Helvetica, Arial-Unicode, Arial, Sans-serif">from the Noun Project</text></svg>